<mxfile host="app.diagrams.net" modified="2024-03-11T00:21:27.993Z" agent="Mozilla/5.0 (Windows NT 10.0; Win64; x64) AppleWebKit/537.36 (KHTML, like Gecko) Chrome/122.0.0.0 Safari/537.36 Edg/122.0.0.0" etag="ZA2vLZNbVb8IySEc5MTW" version="24.0.4" type="device">
  <diagram name="Página-1" id="8JOocaAW8_xV6vWTLReO">
    <mxGraphModel dx="2738" dy="875" grid="1" gridSize="10" guides="1" tooltips="1" connect="1" arrows="1" fold="1" page="1" pageScale="1" pageWidth="827" pageHeight="1169" math="0" shadow="0">
      <root>
        <mxCell id="0" />
        <mxCell id="1" parent="0" />
        <mxCell id="j_vC4EMziK-5tsRUhKnc-3" value="" style="edgeStyle=orthogonalEdgeStyle;rounded=0;orthogonalLoop=1;jettySize=auto;html=1;" edge="1" parent="1" source="j_vC4EMziK-5tsRUhKnc-1" target="j_vC4EMziK-5tsRUhKnc-2">
          <mxGeometry relative="1" as="geometry" />
        </mxCell>
        <mxCell id="j_vC4EMziK-5tsRUhKnc-1" value="INICIO" style="ellipse;whiteSpace=wrap;html=1;fillColor=#5EA9FF;" vertex="1" parent="1">
          <mxGeometry x="340" y="20" width="120" height="80" as="geometry" />
        </mxCell>
        <mxCell id="j_vC4EMziK-5tsRUhKnc-5" value="" style="edgeStyle=orthogonalEdgeStyle;rounded=0;orthogonalLoop=1;jettySize=auto;html=1;" edge="1" parent="1" source="j_vC4EMziK-5tsRUhKnc-2" target="j_vC4EMziK-5tsRUhKnc-4">
          <mxGeometry relative="1" as="geometry" />
        </mxCell>
        <mxCell id="j_vC4EMziK-5tsRUhKnc-2" value="&quot;Solicitar la forma geometrica a calcular&quot;" style="shape=parallelogram;perimeter=parallelogramPerimeter;whiteSpace=wrap;html=1;fixedSize=1;fillColor=#3CFF2E;" vertex="1" parent="1">
          <mxGeometry x="280" y="160" width="240" height="60" as="geometry" />
        </mxCell>
        <mxCell id="j_vC4EMziK-5tsRUhKnc-7" value="" style="edgeStyle=orthogonalEdgeStyle;rounded=0;orthogonalLoop=1;jettySize=auto;html=1;" edge="1" parent="1" source="j_vC4EMziK-5tsRUhKnc-4" target="j_vC4EMziK-5tsRUhKnc-6">
          <mxGeometry relative="1" as="geometry" />
        </mxCell>
        <mxCell id="j_vC4EMziK-5tsRUhKnc-10" value="" style="edgeStyle=orthogonalEdgeStyle;rounded=0;orthogonalLoop=1;jettySize=auto;html=1;" edge="1" parent="1" source="j_vC4EMziK-5tsRUhKnc-4" target="j_vC4EMziK-5tsRUhKnc-9">
          <mxGeometry relative="1" as="geometry" />
        </mxCell>
        <mxCell id="j_vC4EMziK-5tsRUhKnc-12" value="" style="edgeStyle=orthogonalEdgeStyle;rounded=0;orthogonalLoop=1;jettySize=auto;html=1;" edge="1" parent="1" source="j_vC4EMziK-5tsRUhKnc-4" target="j_vC4EMziK-5tsRUhKnc-11">
          <mxGeometry relative="1" as="geometry" />
        </mxCell>
        <mxCell id="j_vC4EMziK-5tsRUhKnc-4" value="¿Cuál es la forma geométrica?" style="rhombus;whiteSpace=wrap;html=1;fillColor=#474D0A;" vertex="1" parent="1">
          <mxGeometry x="300" y="290" width="200" height="80" as="geometry" />
        </mxCell>
        <mxCell id="j_vC4EMziK-5tsRUhKnc-15" style="edgeStyle=orthogonalEdgeStyle;rounded=0;orthogonalLoop=1;jettySize=auto;html=1;" edge="1" parent="1" source="j_vC4EMziK-5tsRUhKnc-6" target="j_vC4EMziK-5tsRUhKnc-16">
          <mxGeometry relative="1" as="geometry">
            <mxPoint x="-140" y="690" as="targetPoint" />
          </mxGeometry>
        </mxCell>
        <mxCell id="j_vC4EMziK-5tsRUhKnc-6" value="Circulo" style="shape=parallelogram;perimeter=parallelogramPerimeter;whiteSpace=wrap;html=1;fixedSize=1;fillColor=#3CFF2E;" vertex="1" parent="1">
          <mxGeometry x="-230" y="300" width="180" height="60" as="geometry" />
        </mxCell>
        <mxCell id="j_vC4EMziK-5tsRUhKnc-13" style="edgeStyle=orthogonalEdgeStyle;rounded=0;orthogonalLoop=1;jettySize=auto;html=1;" edge="1" parent="1" source="j_vC4EMziK-5tsRUhKnc-9">
          <mxGeometry relative="1" as="geometry">
            <mxPoint x="885" y="691.0667317708334" as="targetPoint" />
          </mxGeometry>
        </mxCell>
        <mxCell id="j_vC4EMziK-5tsRUhKnc-9" value="Cuadrado" style="shape=parallelogram;perimeter=parallelogramPerimeter;whiteSpace=wrap;html=1;fixedSize=1;fillColor=#3CFF2E;" vertex="1" parent="1">
          <mxGeometry x="800" y="300" width="170" height="60" as="geometry" />
        </mxCell>
        <mxCell id="j_vC4EMziK-5tsRUhKnc-14" style="edgeStyle=orthogonalEdgeStyle;rounded=0;orthogonalLoop=1;jettySize=auto;html=1;" edge="1" parent="1" source="j_vC4EMziK-5tsRUhKnc-11">
          <mxGeometry relative="1" as="geometry">
            <mxPoint x="400" y="690" as="targetPoint" />
          </mxGeometry>
        </mxCell>
        <mxCell id="j_vC4EMziK-5tsRUhKnc-11" value="Triangulo" style="shape=parallelogram;perimeter=parallelogramPerimeter;whiteSpace=wrap;html=1;fixedSize=1;fillColor=#3CFF2E;" vertex="1" parent="1">
          <mxGeometry x="315" y="460" width="170" height="60" as="geometry" />
        </mxCell>
        <mxCell id="j_vC4EMziK-5tsRUhKnc-22" value="" style="edgeStyle=orthogonalEdgeStyle;rounded=0;orthogonalLoop=1;jettySize=auto;html=1;" edge="1" parent="1" source="j_vC4EMziK-5tsRUhKnc-16" target="j_vC4EMziK-5tsRUhKnc-21">
          <mxGeometry relative="1" as="geometry" />
        </mxCell>
        <mxCell id="j_vC4EMziK-5tsRUhKnc-16" value="&quot;Calcular area del circulo" style="shape=parallelogram;perimeter=parallelogramPerimeter;whiteSpace=wrap;html=1;fixedSize=1;fillColor=#3CFF2E;" vertex="1" parent="1">
          <mxGeometry x="-230" y="690" width="180" height="60" as="geometry" />
        </mxCell>
        <mxCell id="j_vC4EMziK-5tsRUhKnc-24" value="" style="edgeStyle=orthogonalEdgeStyle;rounded=0;orthogonalLoop=1;jettySize=auto;html=1;" edge="1" parent="1" source="j_vC4EMziK-5tsRUhKnc-17" target="j_vC4EMziK-5tsRUhKnc-23">
          <mxGeometry relative="1" as="geometry" />
        </mxCell>
        <mxCell id="j_vC4EMziK-5tsRUhKnc-17" value="&quot;Calcular area del triangulo&quot;" style="shape=parallelogram;perimeter=parallelogramPerimeter;whiteSpace=wrap;html=1;fixedSize=1;fillColor=#3CFF2E;" vertex="1" parent="1">
          <mxGeometry x="315" y="690" width="180" height="60" as="geometry" />
        </mxCell>
        <mxCell id="j_vC4EMziK-5tsRUhKnc-26" value="" style="edgeStyle=orthogonalEdgeStyle;rounded=0;orthogonalLoop=1;jettySize=auto;html=1;" edge="1" parent="1" source="j_vC4EMziK-5tsRUhKnc-19" target="j_vC4EMziK-5tsRUhKnc-25">
          <mxGeometry relative="1" as="geometry" />
        </mxCell>
        <mxCell id="j_vC4EMziK-5tsRUhKnc-19" value="&quot;Calcular area del cuadrado&quot;" style="shape=parallelogram;perimeter=parallelogramPerimeter;whiteSpace=wrap;html=1;fixedSize=1;fillColor=#3CFF2E;" vertex="1" parent="1">
          <mxGeometry x="790" y="690" width="180" height="60" as="geometry" />
        </mxCell>
        <mxCell id="j_vC4EMziK-5tsRUhKnc-28" value="" style="edgeStyle=orthogonalEdgeStyle;rounded=0;orthogonalLoop=1;jettySize=auto;html=1;" edge="1" parent="1" source="j_vC4EMziK-5tsRUhKnc-21" target="j_vC4EMziK-5tsRUhKnc-27">
          <mxGeometry relative="1" as="geometry" />
        </mxCell>
        <mxCell id="j_vC4EMziK-5tsRUhKnc-21" value="&quot;Calcular perímetro del circulo&quot;" style="shape=parallelogram;perimeter=parallelogramPerimeter;whiteSpace=wrap;html=1;fixedSize=1;fillColor=#3CFF2E;" vertex="1" parent="1">
          <mxGeometry x="-235" y="860" width="190" height="60" as="geometry" />
        </mxCell>
        <mxCell id="j_vC4EMziK-5tsRUhKnc-33" value="" style="edgeStyle=orthogonalEdgeStyle;rounded=0;orthogonalLoop=1;jettySize=auto;html=1;" edge="1" parent="1" source="j_vC4EMziK-5tsRUhKnc-23" target="j_vC4EMziK-5tsRUhKnc-29">
          <mxGeometry relative="1" as="geometry" />
        </mxCell>
        <mxCell id="j_vC4EMziK-5tsRUhKnc-23" value="&quot;Calcular perímetro del triangulo&quot;" style="shape=parallelogram;perimeter=parallelogramPerimeter;whiteSpace=wrap;html=1;fixedSize=1;fillColor=#3CFF2E;" vertex="1" parent="1">
          <mxGeometry x="317.5" y="860" width="175" height="60" as="geometry" />
        </mxCell>
        <mxCell id="j_vC4EMziK-5tsRUhKnc-34" value="" style="edgeStyle=orthogonalEdgeStyle;rounded=0;orthogonalLoop=1;jettySize=auto;html=1;" edge="1" parent="1" source="j_vC4EMziK-5tsRUhKnc-25" target="j_vC4EMziK-5tsRUhKnc-31">
          <mxGeometry relative="1" as="geometry" />
        </mxCell>
        <mxCell id="j_vC4EMziK-5tsRUhKnc-25" value="&quot;Calcular perímetro del cuadrado&quot;" style="shape=parallelogram;perimeter=parallelogramPerimeter;whiteSpace=wrap;html=1;fixedSize=1;fillColor=#3CFF2E;" vertex="1" parent="1">
          <mxGeometry x="790" y="860" width="180" height="60" as="geometry" />
        </mxCell>
        <mxCell id="j_vC4EMziK-5tsRUhKnc-36" value="" style="edgeStyle=orthogonalEdgeStyle;rounded=0;orthogonalLoop=1;jettySize=auto;html=1;" edge="1" parent="1" source="j_vC4EMziK-5tsRUhKnc-27" target="j_vC4EMziK-5tsRUhKnc-35">
          <mxGeometry relative="1" as="geometry">
            <Array as="points">
              <mxPoint x="-140" y="1220" />
            </Array>
          </mxGeometry>
        </mxCell>
        <mxCell id="j_vC4EMziK-5tsRUhKnc-27" value="&quot;Calcular volumen del cilindro&quot;" style="shape=parallelogram;perimeter=parallelogramPerimeter;whiteSpace=wrap;html=1;fixedSize=1;fillColor=#3CFF2E;" vertex="1" parent="1">
          <mxGeometry x="-225" y="980" width="170" height="60" as="geometry" />
        </mxCell>
        <mxCell id="j_vC4EMziK-5tsRUhKnc-37" style="edgeStyle=orthogonalEdgeStyle;rounded=0;orthogonalLoop=1;jettySize=auto;html=1;entryX=0.5;entryY=0;entryDx=0;entryDy=0;" edge="1" parent="1" source="j_vC4EMziK-5tsRUhKnc-29" target="j_vC4EMziK-5tsRUhKnc-35">
          <mxGeometry relative="1" as="geometry" />
        </mxCell>
        <mxCell id="j_vC4EMziK-5tsRUhKnc-29" value="&quot;Calcular volumen del cilindro&quot;" style="shape=parallelogram;perimeter=parallelogramPerimeter;whiteSpace=wrap;html=1;fixedSize=1;fillColor=#3CFF2E;" vertex="1" parent="1">
          <mxGeometry x="320" y="980" width="170" height="60" as="geometry" />
        </mxCell>
        <mxCell id="j_vC4EMziK-5tsRUhKnc-38" style="edgeStyle=orthogonalEdgeStyle;rounded=0;orthogonalLoop=1;jettySize=auto;html=1;entryX=1;entryY=0.5;entryDx=0;entryDy=0;" edge="1" parent="1" source="j_vC4EMziK-5tsRUhKnc-31" target="j_vC4EMziK-5tsRUhKnc-35">
          <mxGeometry relative="1" as="geometry">
            <mxPoint x="530.0000000000005" y="1230" as="targetPoint" />
            <Array as="points">
              <mxPoint x="880" y="1220" />
            </Array>
          </mxGeometry>
        </mxCell>
        <mxCell id="j_vC4EMziK-5tsRUhKnc-31" value="&quot;Calcular volumen del cilindro&quot;" style="shape=parallelogram;perimeter=parallelogramPerimeter;whiteSpace=wrap;html=1;fixedSize=1;fillColor=#3CFF2E;" vertex="1" parent="1">
          <mxGeometry x="795" y="990" width="170" height="60" as="geometry" />
        </mxCell>
        <mxCell id="j_vC4EMziK-5tsRUhKnc-40" value="" style="edgeStyle=orthogonalEdgeStyle;rounded=0;orthogonalLoop=1;jettySize=auto;html=1;" edge="1" parent="1" source="j_vC4EMziK-5tsRUhKnc-35" target="j_vC4EMziK-5tsRUhKnc-39">
          <mxGeometry relative="1" as="geometry" />
        </mxCell>
        <mxCell id="j_vC4EMziK-5tsRUhKnc-35" value="Mostrar resultado" style="shape=parallelogram;perimeter=parallelogramPerimeter;whiteSpace=wrap;html=1;fixedSize=1;fillColor=#3CFF2E;" vertex="1" parent="1">
          <mxGeometry x="353" y="1190" width="120" height="60" as="geometry" />
        </mxCell>
        <mxCell id="j_vC4EMziK-5tsRUhKnc-39" value="FIN" style="ellipse;whiteSpace=wrap;html=1;fillColor=#5EA9FF;" vertex="1" parent="1">
          <mxGeometry x="345" y="1340" width="137" height="80" as="geometry" />
        </mxCell>
      </root>
    </mxGraphModel>
  </diagram>
</mxfile>
